<?xml version="1.0" encoding="UTF-8"?>
<!--Font Awesome Free 6.4.2 by @fontawesome - https://fontawesome.com
License - https://fontawesome.com/license/free (Icons: CC BY 4.0, Fonts: SIL OFL 1.1, Code: MIT License)
Copyright 2023 Fonticons, Inc.
-->
<svg xmlns="http://www.w3.org/2000/svg">
  <symbol id="regular-circle-check" viewBox="0 0 512 512">
    <path d="M256 48a208 208 0 1 1 0 416 208 208 0 1 1 0-416zm0 464A256 256 0 1 0 256 0a256 256 0 1 0 0 512zM369 209c9.4-9.4 9.4-24.6 0-33.9s-24.6-9.4-33.9 0l-111 111-47-47c-9.4-9.4-24.6-9.4-33.9 0s-9.4 24.6 0 33.9l64 64c9.4 9.4 24.6 9.4 33.9 0L369 209z"/>
  </symbol>
  <symbol id="regular-face-frown" viewBox="0 0 512 512">
    <path d="M464 256A208 208 0 1 0 48 256a208 208 0 1 0 416 0zM0 256a256 256 0 1 1 512 0A256 256 0 1 1 0 256zM174.6 384.1c-4.5 12.5-18.2 18.9-30.7 14.4s-18.9-18.2-14.4-30.7C146.9 319.4 198.9 288 256 288s109.1 31.4 126.6 79.9c4.5 12.5-2 26.2-14.4 30.7s-26.2-2-30.7-14.4C328.2 358.5 297.2 336 256 336s-72.2 22.5-81.4 48.1zM144.4 208a32 32 0 1 1 64 0 32 32 0 1 1 -64 0zm192-32a32 32 0 1 1 0 64 32 32 0 1 1 0-64z"/>
  </symbol>
  <symbol id="regular-face-meh" viewBox="0 0 512 512">
    <path d="M464 256A208 208 0 1 1 48 256a208 208 0 1 1 416 0zM256 0a256 256 0 1 0 0 512A256 256 0 1 0 256 0zM176.4 240a32 32 0 1 0 0-64 32 32 0 1 0 0 64zm192-32a32 32 0 1 0 -64 0 32 32 0 1 0 64 0zM184 328c-13.3 0-24 10.7-24 24s10.7 24 24 24H328c13.3 0 24-10.7 24-24s-10.7-24-24-24H184z"/>
  </symbol>
  <symbol id="regular-face-smile" viewBox="0 0 512 512">
    <path d="M464 256A208 208 0 1 0 48 256a208 208 0 1 0 416 0zM0 256a256 256 0 1 1 512 0A256 256 0 1 1 0 256zm177.6 62.1C192.8 334.5 218.8 352 256 352s63.2-17.5 78.4-33.9c9-9.7 24.2-10.4 33.9-1.4s10.4 24.2 1.4 33.9c-22 23.8-60 49.4-113.6 49.4s-91.7-25.5-113.6-49.4c-9-9.7-8.4-24.9 1.4-33.9s24.9-8.4 33.9 1.4zM144.4 208a32 32 0 1 1 64 0 32 32 0 1 1 -64 0zm192-32a32 32 0 1 1 0 64 32 32 0 1 1 0-64z"/>
  </symbol>
  <symbol id="regular-thumbs-down" viewBox="0 0 512 512">
    <path d="M323.8 477.2c-38.2 10.9-78.1-11.2-89-49.4l-5.7-20c-3.7-13-10.4-25-19.5-35l-51.3-56.4c-8.9-9.8-8.2-25 1.6-33.9s25-8.2 33.9 1.6l51.3 56.4c14.1 15.5 24.4 34 30.1 54.1l5.7 20c3.6 12.7 16.9 20.1 29.7 16.5s20.1-16.9 16.5-29.7l-5.7-20c-5.7-19.9-14.7-38.7-26.6-55.5c-5.2-7.3-5.8-16.9-1.7-24.9s12.3-13 21.3-13L448 288c8.8 0 16-7.2 16-16c0-6.8-4.3-12.7-10.4-15c-7.4-2.8-13-9-14.9-16.7s.1-15.8 5.3-21.7c2.5-2.8 4-6.5 4-10.6c0-7.8-5.6-14.3-13-15.7c-8.2-1.6-15.1-7.3-18-15.2s-1.6-16.7 3.6-23.3c2.1-2.7 3.4-6.1 3.4-9.9c0-6.7-4.2-12.6-10.2-14.9c-11.5-4.5-17.7-16.9-14.4-28.8c.4-1.3 .6-2.8 .6-4.3c0-8.8-7.2-16-16-16H286.5c-12.6 0-25 3.7-35.5 10.7l-61.7 41.1c-11 7.4-25.9 4.4-33.3-6.7s-4.4-25.9 6.7-33.3l61.7-41.1c18.4-12.3 40-18.8 62.1-18.8H384c34.7 0 62.9 27.6 64 62c14.6 11.7 24 29.7 24 50c0 4.5-.5 8.8-1.3 13c15.4 11.7 25.3 30.2 25.3 51c0 6.5-1 12.8-2.8 18.7C504.8 238.3 512 254.3 512 272c0 35.3-28.6 64-64 64l-92.3 0c4.7 10.4 8.7 21.2 11.8 32.2l5.7 20c10.9 38.2-11.2 78.1-49.4 89zM32 384c-17.7 0-32-14.3-32-32V128c0-17.7 14.3-32 32-32H96c17.7 0 32 14.3 32 32V352c0 17.7-14.3 32-32 32H32z"/>
  </symbol>
  <symbol id="regular-thumbs-up" viewBox="0 0 512 512">
    <path d="M323.8 34.8c-38.2-10.9-78.1 11.2-89 49.4l-5.7 20c-3.7 13-10.4 25-19.5 35l-51.3 56.4c-8.9 9.8-8.2 25 1.6 33.9s25 8.2 33.9-1.6l51.3-56.4c14.1-15.5 24.4-34 30.1-54.1l5.7-20c3.6-12.7 16.9-20.1 29.7-16.5s20.1 16.9 16.5 29.7l-5.7 20c-5.7 19.9-14.7 38.7-26.6 55.5c-5.2 7.3-5.8 16.9-1.7 24.9s12.3 13 21.3 13L448 224c8.8 0 16 7.2 16 16c0 6.8-4.3 12.7-10.4 15c-7.4 2.8-13 9-14.9 16.7s.1 15.8 5.3 21.7c2.5 2.8 4 6.5 4 10.6c0 7.8-5.6 14.3-13 15.7c-8.2 1.6-15.1 7.3-18 15.1s-1.6 16.7 3.6 23.3c2.1 2.7 3.4 6.1 3.4 9.9c0 6.7-4.2 12.6-10.2 14.9c-11.5 4.5-17.7 16.9-14.4 28.8c.4 1.3 .6 2.8 .6 4.3c0 8.8-7.2 16-16 16H286.5c-12.6 0-25-3.7-35.5-10.7l-61.7-41.1c-11-7.4-25.9-4.4-33.3 6.7s-4.4 25.9 6.7 33.3l61.7 41.1c18.4 12.3 40 18.8 62.1 18.8H384c34.7 0 62.9-27.6 64-62c14.6-11.7 24-29.7 24-50c0-4.5-.5-8.8-1.3-13c15.4-11.7 25.3-30.2 25.3-51c0-6.5-1-12.8-2.8-18.7C504.8 273.7 512 257.7 512 240c0-35.3-28.6-64-64-64l-92.3 0c4.7-10.4 8.7-21.2 11.8-32.2l5.7-20c10.9-38.2-11.2-78.1-49.4-89zM32 192c-17.7 0-32 14.3-32 32V448c0 17.7 14.3 32 32 32H96c17.7 0 32-14.3 32-32V224c0-17.7-14.3-32-32-32H32z"/>
  </symbol>
  <symbol id="solid-bars" viewBox="0 0 448 512">
    <path d="M0 96C0 78.3 14.3 64 32 64H416c17.7 0 32 14.3 32 32s-14.3 32-32 32H32C14.3 128 0 113.7 0 96zM0 256c0-17.7 14.3-32 32-32H416c17.7 0 32 14.3 32 32s-14.3 32-32 32H32c-17.7 0-32-14.3-32-32zM448 416c0 17.7-14.3 32-32 32H32c-17.7 0-32-14.3-32-32s14.3-32 32-32H416c17.7 0 32 14.3 32 32z"/>
  </symbol>
  <symbol id="solid-bold" viewBox="0 0 384 512">
    <path d="M0 64C0 46.3 14.3 32 32 32H80 96 224c70.7 0 128 57.3 128 128c0 31.3-11.3 60.1-30 82.3c37.1 22.4 62 63.1 62 109.7c0 70.7-57.3 128-128 128H96 80 32c-17.7 0-32-14.3-32-32s14.3-32 32-32H48V256 96H32C14.3 96 0 81.7 0 64zM224 224c35.3 0 64-28.7 64-64s-28.7-64-64-64H112V224H224zM112 288V416H256c35.3 0 64-28.7 64-64s-28.7-64-64-64H224 112z"/>
  </symbol>
  <symbol id="solid-chevron-left" viewBox="0 0 320 512">
    <path d="M9.4 233.4c-12.5 12.5-12.5 32.8 0 45.3l192 192c12.5 12.5 32.8 12.5 45.3 0s12.5-32.8 0-45.3L77.3 256 246.6 86.6c12.5-12.5 12.5-32.8 0-45.3s-32.8-12.5-45.3 0l-192 192z"/>
  </symbol>
  <symbol id="solid-chevron-right" viewBox="0 0 320 512">
    <path d="M310.6 233.4c12.5 12.5 12.5 32.8 0 45.3l-192 192c-12.5 12.5-32.8 12.5-45.3 0s-12.5-32.8 0-45.3L242.7 256 73.4 86.6c-12.5-12.5-12.5-32.8 0-45.3s32.8-12.5 45.3 0l192 192z"/>
  </symbol>
  <symbol id="solid-circle-exclamation" viewBox="0 0 512 512">
    <path d="M256 512A256 256 0 1 0 256 0a256 256 0 1 0 0 512zm0-384c13.3 0 24 10.7 24 24V264c0 13.3-10.7 24-24 24s-24-10.7-24-24V152c0-13.3 10.7-24 24-24zM224 352a32 32 0 1 1 64 0 32 32 0 1 1 -64 0z"/>
  </symbol>
  <symbol id="solid-code" viewBox="0 0 640 512">
    <path d="M392.8 1.2c-17-4.9-34.7 5-39.6 22l-128 448c-4.9 17 5 34.7 22 39.6s34.7-5 39.6-22l128-448c4.9-17-5-34.7-22-39.6zm80.6 120.1c-12.5 12.5-12.5 32.8 0 45.3L562.7 256l-89.4 89.4c-12.5 12.5-12.5 32.8 0 45.3s32.8 12.5 45.3 0l112-112c12.5-12.5 12.5-32.8 0-45.3l-112-112c-12.5-12.5-32.8-12.5-45.3 0zm-306.7 0c-12.5-12.5-32.8-12.5-45.3 0l-112 112c-12.5 12.5-12.5 32.8 0 45.3l112 112c12.5 12.5 32.8 12.5 45.3 0s12.5-32.8 0-45.3L77.3 256l89.4-89.4c12.5-12.5 12.5-32.8 0-45.3z"/>
  </symbol>
  <symbol id="solid-ellipsis" viewBox="0 0 448 512">
    <path d="M8 256a56 56 0 1 1 112 0A56 56 0 1 1 8 256zm160 0a56 56 0 1 1 112 0 56 56 0 1 1 -112 0zm216-56a56 56 0 1 1 0 112 56 56 0 1 1 0-112z"/>
  </symbol>
  <symbol id="solid-eye-slash" viewBox="0 0 640 512">
    <path d="M38.8 5.1C28.4-3.1 13.3-1.2 5.1 9.2S-1.2 34.7 9.2 42.9l592 464c10.4 8.2 25.5 6.3 33.7-4.1s6.3-25.5-4.1-33.7L525.6 386.7c39.6-40.6 66.4-86.1 79.9-118.4c3.3-7.9 3.3-16.7 0-24.6c-14.9-35.7-46.2-87.7-93-131.1C465.5 68.8 400.8 32 320 32c-68.2 0-125 26.3-169.3 60.8L38.8 5.1zM223.1 149.5C248.6 126.2 282.7 112 320 112c79.5 0 144 64.5 144 144c0 24.9-6.3 48.3-17.4 68.7L408 294.5c8.4-19.3 10.6-41.4 4.8-63.3c-11.1-41.5-47.8-69.4-88.6-71.1c-5.8-.2-9.2 6.1-7.4 11.7c2.1 6.4 3.3 13.2 3.3 20.3c0 10.2-2.4 19.8-6.6 28.3l-90.3-70.8zM373 389.9c-16.4 6.5-34.3 10.1-53 10.1c-79.5 0-144-64.5-144-144c0-6.9 .5-13.6 1.4-20.2L83.1 161.5C60.3 191.2 44 220.8 34.5 243.7c-3.3 7.9-3.3 16.7 0 24.6c14.9 35.7 46.2 87.7 93 131.1C174.5 443.2 239.2 480 320 480c47.8 0 89.9-12.9 126.2-32.5L373 389.9z"/>
  </symbol>
  <symbol id="solid-heading" viewBox="0 0 448 512">
    <path d="M0 64C0 46.3 14.3 32 32 32H80h48c17.7 0 32 14.3 32 32s-14.3 32-32 32H112V208H336V96H320c-17.7 0-32-14.3-32-32s14.3-32 32-32h48 48c17.7 0 32 14.3 32 32s-14.3 32-32 32H400V240 416h16c17.7 0 32 14.3 32 32s-14.3 32-32 32H368 320c-17.7 0-32-14.3-32-32s14.3-32 32-32h16V272H112V416h16c17.7 0 32 14.3 32 32s-14.3 32-32 32H80 32c-17.7 0-32-14.3-32-32s14.3-32 32-32H48V240 96H32C14.3 96 0 81.7 0 64z"/>
  </symbol>
  <symbol id="solid-italic" viewBox="0 0 384 512">
    <path d="M128 64c0-17.7 14.3-32 32-32H352c17.7 0 32 14.3 32 32s-14.3 32-32 32H293.3L160 416h64c17.7 0 32 14.3 32 32s-14.3 32-32 32H32c-17.7 0-32-14.3-32-32s14.3-32 32-32H90.7L224 96H160c-17.7 0-32-14.3-32-32z"/>
  </symbol>
  <symbol id="solid-magnifying-glass" viewBox="0 0 512 512">
    <path d="M416 208c0 45.9-14.9 88.3-40 122.7L502.6 457.4c12.5 12.5 12.5 32.8 0 45.3s-32.8 12.5-45.3 0L330.7 376c-34.4 25.2-76.8 40-122.7 40C93.1 416 0 322.9 0 208S93.1 0 208 0S416 93.1 416 208zM208 352a144 144 0 1 0 0-288 144 144 0 1 0 0 288z"/>
  </symbol>
  <symbol id="solid-quote-right" viewBox="0 0 448 512">
    <path d="M448 296c0 66.3-53.7 120-120 120h-8c-17.7 0-32-14.3-32-32s14.3-32 32-32h8c30.9 0 56-25.1 56-56v-8H320c-35.3 0-64-28.7-64-64V160c0-35.3 28.7-64 64-64h64c35.3 0 64 28.7 64 64v32 32 72zm-256 0c0 66.3-53.7 120-120 120H64c-17.7 0-32-14.3-32-32s14.3-32 32-32h8c30.9 0 56-25.1 56-56v-8H64c-35.3 0-64-28.7-64-64V160c0-35.3 28.7-64 64-64h64c35.3 0 64 28.7 64 64v32 32 72z"/>
  </symbol>
  <symbol id="solid-strikethrough" viewBox="0 0 512 512">
    <path d="M161.3 144c3.2-17.2 14-30.1 33.7-38.6c21.1-9 51.8-12.3 88.6-6.5c11.9 1.9 48.8 9.1 60.1 12c17.1 4.5 34.6-5.6 39.2-22.7s-5.6-34.6-22.7-39.2c-14.3-3.8-53.6-11.4-66.6-13.4c-44.7-7-88.3-4.2-123.7 10.9c-36.5 15.6-64.4 44.8-71.8 87.3c-.1 .6-.2 1.1-.2 1.7c-2.8 23.9 .5 45.6 10.1 64.6c4.5 9 10.2 16.9 16.7 23.9H32c-17.7 0-32 14.3-32 32s14.3 32 32 32H480c17.7 0 32-14.3 32-32s-14.3-32-32-32H270.1c-.1 0-.3-.1-.4-.1l-1.1-.3c-36-10.8-65.2-19.6-85.2-33.1c-9.3-6.3-15-12.6-18.2-19.1c-3.1-6.1-5.2-14.6-3.8-27.4zM348.9 337.2c2.7 6.5 4.4 15.8 1.9 30.1c-3 17.6-13.8 30.8-33.9 39.4c-21.1 9-51.7 12.3-88.5 6.5c-18-2.9-49.1-13.5-74.4-22.1c-5.6-1.9-11-3.7-15.9-5.4c-16.8-5.6-34.9 3.5-40.5 20.3s3.5 34.9 20.3 40.5c3.6 1.2 7.9 2.7 12.7 4.3l0 0 0 0c24.9 8.5 63.6 21.7 87.6 25.6l0 0 .2 0c44.7 7 88.3 4.2 123.7-10.9c36.5-15.6 64.4-44.8 71.8-87.3c3.6-21 2.7-40.4-3.1-58.1H335.1c7 5.6 11.4 11.2 13.9 17.2z"/>
  </symbol>
  <symbol id="solid-underline" viewBox="0 0 448 512">
    <path d="M16 64c0-17.7 14.3-32 32-32h96c17.7 0 32 14.3 32 32s-14.3 32-32 32H128V224c0 53 43 96 96 96s96-43 96-96V96H304c-17.7 0-32-14.3-32-32s14.3-32 32-32h96c17.7 0 32 14.3 32 32s-14.3 32-32 32H384V224c0 88.4-71.6 160-160 160s-160-71.6-160-160V96H48C30.3 96 16 81.7 16 64zM0 448c0-17.7 14.3-32 32-32H416c17.7 0 32 14.3 32 32s-14.3 32-32 32H32c-17.7 0-32-14.3-32-32z"/>
  </symbol>
  <symbol id="solid-up-down-left-right" viewBox="0 0 512 512">
    <path d="M278.6 9.4c-12.5-12.5-32.8-12.5-45.3 0l-64 64c-9.2 9.2-11.9 22.9-6.9 34.9s16.6 19.8 29.6 19.8h32v96H128V192c0-12.9-7.8-24.6-19.8-29.6s-25.7-2.2-34.9 6.9l-64 64c-12.5 12.5-12.5 32.8 0 45.3l64 64c9.2 9.2 22.9 11.9 34.9 6.9s19.8-16.6 19.8-29.6V288h96v96H192c-12.9 0-24.6 7.8-29.6 19.8s-2.2 25.7 6.9 34.9l64 64c12.5 12.5 32.8 12.5 45.3 0l64-64c9.2-9.2 11.9-22.9 6.9-34.9s-16.6-19.8-29.6-19.8H288V288h96v32c0 12.9 7.8 24.6 19.8 29.6s25.7 2.2 34.9-6.9l64-64c12.5-12.5 12.5-32.8 0-45.3l-64-64c-9.2-9.2-22.9-11.9-34.9-6.9s-19.8 16.6-19.8 29.6v32H288V128h32c12.9 0 24.6-7.8 29.6-19.8s2.2-25.7-6.9-34.9l-64-64z"/>
  </symbol>
  <symbol id="solid-xmark" viewBox="0 0 384 512">
    <path d="M342.6 150.6c12.5-12.5 12.5-32.8 0-45.3s-32.8-12.5-45.3 0L192 210.7 86.6 105.4c-12.5-12.5-32.8-12.5-45.3 0s-12.5 32.8 0 45.3L146.7 256 41.4 361.4c-12.5 12.5-12.5 32.8 0 45.3s32.8 12.5 45.3 0L192 301.3 297.4 406.6c12.5 12.5 32.8 12.5 45.3 0s12.5-32.8 0-45.3L237.3 256 342.6 150.6z"/>
  </symbol>
</svg>
